<?xml version="1.0" standalone="no"?>
<!DOCTYPE svg PUBLIC "-//W3C//DTD SVG 1.1//EN" "http://www.w3.org/Graphics/SVG/1.1/DTD/svg11.dtd" >
<svg xmlns="http://www.w3.org/2000/svg">
<metadata>
This is a custom SVG webfont generated by Font Squirrel.
Copyright   : c1993 Erik Spiekermann
</metadata>
<defs>
<font id="MetaPlusNormalCaps" horiz-adv-x="540" >
<font-face units-per-em="2048" ascent="1638" descent="-410" />
<missing-glyph horiz-adv-x="460" />
<glyph unicode=" "  horiz-adv-x="460" />
<glyph unicode="&#x09;" horiz-adv-x="460" />
<glyph unicode="&#xa0;" horiz-adv-x="460" />
<glyph unicode="!" horiz-adv-x="544" d="M145 113q0 51 36 88t89 37q51 0 88 -36t37 -87q0 -53 -36.5 -91t-88 -38t-88.5 37t-37 90zM168 1405l201 27l-39 -1026h-123z" />
<glyph unicode="&#x22;" horiz-adv-x="1062" d="M307 958v492h148v-492h-148zM608 958v492h148v-492h-148z" />
<glyph unicode="#" horiz-adv-x="1138" d="M61 436v135h222l41 312h-201v135h221l62 432h137l-62 -432h258l62 432h137l-61 -432h200v-135h-219l-43 -312h201v-135h-221l-62 -436h-137l61 436h-258l-61 -436h-137l61 436h-201zM420 571h258l43 312h-258z" />
<glyph unicode="$" horiz-adv-x="1134" d="M70 100l73 131q170 -121 359 -120v551l-51 16q-188 61 -250 125q-88 94 -88 229q0 164 106.5 272.5t282.5 127.5v172h121v-170q197 -16 368 -134l-73 -120q-164 106 -295 116v-489l67 -21q170 -53 248 -141q92 -104 92 -248q0 -152 -116.5 -273.5t-290.5 -143.5v-199 h-121v192q-225 0 -432 127zM295 1067q0 -80 48 -131t159 -92v448q-98 -16 -152.5 -74.5t-54.5 -150.5zM623 119q98 16 159.5 86.5t61.5 167.5q0 172 -221 250v-504z" />
<glyph unicode="%" horiz-adv-x="1701" d="M70 1067q0 164 87 256t240 92q166 0 249 -97t83 -263q0 -158 -88 -249t-241.5 -91t-241.5 94t-88 258zM209 1083q0 -131 45 -193.5t152 -62.5q88 0 137 56.5t49 163.5q0 115 -40 185.5t-157 70.5q-186 -1 -186 -220zM453 0l682 1395h135l-682 -1395h-135zM983 332 q0 164 87 256t241 92q166 0 248.5 -97.5t82.5 -263.5q0 -158 -88 -248.5t-241.5 -90.5t-241.5 94t-88 258zM1122 348q0 -131 45 -193.5t152 -62.5q88 0 137 56.5t49 162.5q0 115 -40 185.5t-156 70.5q-187 0 -187 -219z" />
<glyph unicode="&#x26;" horiz-adv-x="1406" d="M129 348q0 125 70.5 206t216.5 151q-199 178 -199 315q0 139 108.5 231t256.5 92q160 0 268 -84.5t108 -230.5q0 -111 -68.5 -182.5t-223.5 -155.5l329 -325q39 82 35 315h141q0 -170 -18 -258t-57 -164l260 -258h-213l-137 133q-61 -76 -170 -120t-232 -44 q-217 0 -346 104.5t-129 274.5zM305 336q0 -109 82 -175.5t221 -66.5q98 0 183.5 38t126.5 93l-406 396q-207 -99 -207 -285zM389 1040q0 -59 36 -111t148 -151q115 55 162 114.5t47 137.5q0 86 -55 141.5t-143 55.5q-80 0 -137.5 -47.5t-57.5 -139.5z" />
<glyph unicode="'" horiz-adv-x="569" d="M211 958v492h147v-492h-147z" />
<glyph unicode="(" horiz-adv-x="655" d="M199 657q0 463 194 705q123 154 283 215l39 -78q-115 -68 -188.5 -153.5t-110.5 -212.5q-53 -190 -54 -471q0 -453 123 -668q84 -145 236 -230l-45 -81q-129 49 -232.5 159.5t-162.5 261.5q-82 213 -82 553z" />
<glyph unicode=")" horiz-adv-x="659" d="M-61 1499l45 82q129 -49 232 -159.5t163 -262.5q82 -213 82 -553q0 -463 -195 -704q-123 -154 -282 -215l-39 77q115 68 188.5 154t110.5 213q53 190 53 471q0 453 -123 668q-83 145 -235 229z" />
<glyph unicode="*" horiz-adv-x="909" d="M63 1124l39 119l291 -98v305h123v-305l291 98l39 -119l-289 -98l182 -244l-100 -77l-184 251l-179 -251l-102 77l178 244z" />
<glyph unicode="+" horiz-adv-x="1024" d="M74 438v148h364v364h148v-364h364v-148h-364v-364h-148v364h-364z" />
<glyph unicode="," horiz-adv-x="546" d="M117 -203q121 59 137 183q-8 -2 -23 -3q-47 0 -79.5 39t-32.5 93q0 61 42 104t101 43q72 0 117 -55.5t45 -141.5q0 -106 -78 -211q-63 -82 -172 -141z" />
<glyph unicode="-" horiz-adv-x="618" d="M117 469v156h391v-156h-391z" />
<glyph unicode="." horiz-adv-x="544" d="M135 115q0 57 39 96t96 39q59 0 99.5 -39t40.5 -96.5t-40 -99.5t-96 -42q-57 0 -98 41.5t-41 100.5z" />
<glyph unicode="/" horiz-adv-x="919" d="M127 -303l530 1853h136l-531 -1853h-135z" />
<glyph unicode="0" horiz-adv-x="1095" d="M78 688q0 276 138 476t327 200q252 0 385 -266q90 -180 90 -428q0 -313 -132 -508t-345 -195q-156 0 -271 123q-84 92 -138 245.5t-54 352.5zM260 680q0 -233 41 -352q37 -109 102.5 -172.5t141.5 -63.5q70 0 134 54.5t103 142.5q55 127 56 379q0 213 -43 342 q-35 109 -99.5 167t-148.5 58q-129 0 -217 -174q-70 -139 -70 -381z" />
<glyph unicode="1" horiz-adv-x="1095" d="M158 1061l393 276h127v-1208h207v-129h-582v129h213v1016q-84 -61 -151 -94l-172 -78z" />
<glyph unicode="2" horiz-adv-x="1095" d="M111 1169q223 193 438 193q160 0 270.5 -109.5t110.5 -269.5q0 -182 -131 -362q-72 -96 -181 -213q-248 -262 -294 -285q98 8 174 8h434l-33 -131h-782v92q123 84 307 293q168 186 242.5 321.5t74.5 250t-70.5 189.5t-176.5 75q-72 0 -131.5 -23.5t-165.5 -95.5l-17 -10z " />
<glyph unicode="3" horiz-adv-x="1095" d="M98 1190q113 104 281 151q76 20 145 21q170 0 279.5 -94t109.5 -240q0 -111 -66.5 -191.5t-180.5 -111.5q90 -23 157 -74q127 -98 127 -241q0 -131 -88 -241t-225 -169q-156 -68 -383 -68q-61 0 -100 7l-37 110q51 -8 104 -8q287 0 443 139q106 94 106 246 q0 82 -46 144.5t-124 84.5q-68 18 -248 19h-20v114h18q221 0 275 25q51 23 82.5 76t31.5 119q0 98 -67.5 158.5t-175.5 60.5q-113 0 -199 -45q-84 -45 -127 -76z" />
<glyph unicode="4" horiz-adv-x="1116" d="M86 256v127l485 958h179l-422 -835q-33 -66 -74 -129q45 6 80 6h317l45 -2q-2 45 -2 57q0 20 3 58.5t3 54.5l25 362l127 39v-508l-2 -63q25 2 47 2h121v-127h-113l-55 2q2 -37 2 -80v-186l-158 -47v231l2 82q-37 -2 -82 -2h-528z" />
<glyph unicode="5" horiz-adv-x="1095" d="M164 70q68 -29 151 -29q186 0 315.5 107.5t129.5 265.5q0 94 -51 164q-74 102 -256 102q-164 0 -258 -45l65 690h606l-24 -135h-436l-35 -395q70 8 139 8q223 0 340 -137q86 -104 86 -250q0 -125 -70.5 -239t-185.5 -171q-152 -78 -336 -78q-80 0 -151 19z" />
<glyph unicode="6" horiz-adv-x="1095" d="M100 522q0 307 197 539q215 256 553 356l39 -102q-125 -39 -217 -98q-176 -111 -271 -256q-59 -92 -96 -252q51 49 133 77.5t166 28.5q152 0 268 -98q139 -113 140 -305q0 -190 -129 -318.5t-322 -128.5q-209 0 -335 152.5t-126 404.5zM289 479q0 -190 71 -289 q74 -100 201 -100q123 0 194.5 86t71.5 232q0 131 -67 204q-74 80 -189 80q-139 0 -276 -108q-6 -48 -6 -105z" />
<glyph unicode="7" horiz-adv-x="1095" d="M127 1188l39 135h854l-39 -164l-143 -209q-115 -168 -226 -383q-172 -340 -219 -565v-2q-2 -4 -3 -10t-1 -10l-199 -50q29 143 89 285q86 207 200 418q203 377 377 557q-92 -2 -188 -2h-541z" />
<glyph unicode="8" horiz-adv-x="1095" d="M90 344q0 143 98 242q78 78 191 119q-115 53 -178.5 136t-63.5 181q0 78 40 154.5t104 117.5q100 68 288 68q176 0 285 -86t109 -225q0 -176 -195 -289q-45 -25 -92 -43l129 -62q203 -96 203 -288q0 -180 -148 -301q-127 -102 -315 -103q-197 0 -326 107.5t-129 271.5z M254 354q0 -121 83 -194.5t220 -73.5q125 0 204 67.5t79 176.5q0 90 -54 147q-66 68 -307 178q-133 -72 -176 -137q-49 -68 -49 -164zM293 1036q0 -92 69 -149q70 -59 209 -117q236 125 236 268q0 94 -69.5 150.5t-188.5 56.5q-117 0 -186.5 -56.5t-69.5 -152.5z" />
<glyph unicode="9" horiz-adv-x="1095" d="M70 0q98 12 196 53q324 141 463 393q35 63 53 115q-115 -80 -254 -80q-178 0 -293.5 120t-115.5 306q0 195 132 327t327 132q182 0 303 -127q135 -135 135 -367q0 -174 -73 -350t-200 -313q-133 -147 -346 -238q-131 -57 -247 -69zM299 905q0 -141 66.5 -222t183.5 -81 q135 0 270 109q20 90 21 159q0 166 -75 267.5t-195.5 101.5t-195.5 -92t-75 -242z" />
<glyph unicode=":" horiz-adv-x="618" d="M174 113q0 59 40 99t99 40q55 0 95.5 -40t40.5 -97.5t-40 -98.5t-100 -41q-57 0 -96 40.5t-39 97.5zM174 758q0 59 41 100t98 41q55 0 95.5 -40t40.5 -97t-40 -98t-97.5 -41t-97.5 39t-40 96z" />
<glyph unicode=";" horiz-adv-x="620" d="M162 -203q121 59 137 183q-8 -2 -23 -3q-47 0 -79.5 39t-32.5 93q0 61 42 104t101 43q72 0 117 -55.5t45 -141.5q0 -106 -78 -211q-63 -82 -172 -141zM162 766q0 53 40 92t97 39t98 -40t41 -95q0 -59 -40 -100t-97 -41t-98 43t-41 102z" />
<glyph unicode="&#x3c;" horiz-adv-x="643" d="M27 614l391 527l135 -88l-328 -439l328 -438l-135 -88z" />
<glyph unicode="=" horiz-adv-x="1363" d="M147 393v135h1070v-135h-1070zM147 713v135h1070v-135h-1070z" />
<glyph unicode="&#x3e;" horiz-adv-x="643" d="M78 176l328 438l-328 439l135 88l393 -527l-393 -526z" />
<glyph unicode="?" horiz-adv-x="880" d="M80 1303q158 121 377 120q141 0 228 -81.5t87 -219.5q0 -47 -14.5 -92t-33.5 -76.5t-48 -62.5t-48.5 -46.5t-44 -33.5t-26.5 -20q-141 -113 -90 -336h-137q-63 260 96 411q20 18 61 49t62.5 51.5t41 59.5t19.5 88q0 76 -52 123t-132 47q-125 0 -279 -94zM274 112.5 q0 57.5 40 97.5t97.5 40t98.5 -40t41 -97q0 -59 -40 -100.5t-97.5 -41.5t-98.5 42t-41 99.5z" />
<glyph unicode="@" horiz-adv-x="1638" d="M90 725q0 317 224.5 539.5t541.5 222.5q287 0 489.5 -178.5t202.5 -448.5q0 -127 -48 -240.5t-119.5 -188.5t-154.5 -119t-157 -44q-55 0 -92 35t-39 100h-4q-117 -135 -256 -135q-129 0 -209 91.5t-80 226.5q0 225 135 402t342 177q166 0 228 -168h4l37 129h133 l-172 -579q-23 -96 -16 -120t46 -24q100 0 193.5 140.5t93.5 306.5q0 231 -167 378.5t-390 147.5q-264 0 -447.5 -192.5t-183.5 -458.5q0 -272 187.5 -461.5t443.5 -189.5q152 0 292 67.5t224 180.5h129q-98 -166 -271 -262.5t-374 -96.5q-322 0 -544 221.5t-222 540.5z M537 600q0 -84 51 -140.5t127 -56.5q125 0 221 147.5t96 287.5q0 78 -50 135t-116 57q-135 0 -232 -141.5t-97 -288.5z" />
<glyph unicode="A" horiz-adv-x="1169" d="M8 0l469 1405h219l465 -1405h-190l-133 432h-525l-135 -432h-170zM358 569h437l-215 688z" />
<glyph unicode="B" horiz-adv-x="1224" d="M188 0v1405h203q205 0 284 -6t134 -25q109 -37 174.5 -126t65.5 -195q0 -109 -65.5 -189t-186.5 -119q119 -23 184 -73q127 -96 127 -287q0 -117 -58.5 -211t-160.5 -133q-61 -23 -126 -32t-212 -9h-363zM350 137h299q150 0 216.5 65.5t66.5 196.5q0 92 -47 163t-123 85 q-68 14 -164 15h-248v-525zM350 801h244q113 0 164 24.5t82 96.5q23 51 22 108q0 82 -44 142.5t-116 78.5q-47 12 -153 13h-199v-463z" />
<glyph unicode="C" horiz-adv-x="1126" d="M102 698q0 313 168 519t422 206q205 0 355 -114l-91 -109q-121 88 -266 88q-242 0 -346 -241q-59 -137 -59 -373q0 -184 45 -297q53 -129 152.5 -195.5t224.5 -66.5q147 0 274 90l90 -113q-176 -115 -391 -115q-246 0 -410 187q-168 190 -168 534z" />
<glyph unicode="D" horiz-adv-x="1292" d="M188 0v1405h281q174 0 263 -19.5t188 -89.5q238 -170 237 -596q0 -348 -160 -524q-90 -100 -189 -138t-253 -38h-367zM356 139h168q131 0 218 29t139 119q94 162 94 393q0 166 -26.5 271.5t-94.5 187.5q-66 78 -138.5 103.5t-191.5 25.5h-168v-1129z" />
<glyph unicode="E" horiz-adv-x="1050" d="M188 0v1405h768l-22 -139h-576v-461h482v-146h-482v-514h619v-145h-789z" />
<glyph unicode="F" horiz-adv-x="919" d="M188 0v1405h740l-27 -139h-543v-461h451v-137h-451v-668h-170z" />
<glyph unicode="G" horiz-adv-x="1277" d="M111 698q0 393 217 590q147 133 366 133q223 0 385 -139l-75 -104q-160 109 -306 108q-266 0 -350 -237q-55 -156 -55 -357q0 -283 98 -426q47 -68 142.5 -108.5t197.5 -40.5q133 0 223 55v428h-282l-33 139h473v-655q-164 -106 -395 -107q-268 0 -432 177 q-174 188 -174 544z" />
<glyph unicode="H" horiz-adv-x="1300" d="M188 0v1405h164v-588h592v588h168v-1405h-168v680h-592v-680h-164z" />
<glyph unicode="I" d="M188 0v1405h164v-1405h-164z" />
<glyph unicode="J" horiz-adv-x="555" d="M-4 -158q117 47 168 138q35 61 35 256v1169h168v-1165q0 -137 -10.5 -202t-41.5 -120q-70 -123 -237 -180z" />
<glyph unicode="K" horiz-adv-x="1146" d="M188 0v1405h170v-1405h-170zM367 743l540 662h215l-565 -660l561 -745h-215z" />
<glyph unicode="L" horiz-adv-x="937" d="M188 0v1405h168v-1264h555l-22 -141h-701z" />
<glyph unicode="M" horiz-adv-x="1636" d="M135 0l123 1405h246l256 -918q16 -61 30.5 -122.5t20.5 -92.5l4 -30q18 113 51 229l264 934h248l121 -1405h-168l-82 1030l-10 240q-29 -129 -55 -221l-301 -1049h-144l-278 997l-70 275q-10 -186 -16 -273l-78 -999h-162z" />
<glyph unicode="N" horiz-adv-x="1310" d="M188 0v1405h195l467 -897q33 -61 65.5 -135t49.5 -117l16 -43q-16 225 -18 428l-7 764h166v-1405h-176l-450 860q-90 170 -160 338q16 -201 18 -383l8 -815h-174z" />
<glyph unicode="O" horiz-adv-x="1368" d="M117 709q0 334 149.5 527.5t409.5 193.5q289 0 442 -230q127 -188 127 -520q0 -203 -48 -338t-157 -233q-150 -135 -356 -136q-244 0 -399 179q-168 192 -168 557zM303 743q0 -336 90 -489q39 -66 125 -109t174 -43q166 0 262 121q102 129 103 432q0 305 -68 447 q-41 86 -119.5 139t-193.5 53q-98 0 -180 -44t-121 -120q-72 -135 -72 -387z" />
<glyph unicode="P" horiz-adv-x="1114" d="M188 0v1405h390q207 0 307 -66q180 -119 180 -335q0 -219 -127 -334q-125 -111 -340 -111h-246v-559h-164zM352 696h236q86 0 134 17.5t85 58.5q72 80 72 199q0 154 -82 223.5t-267 69.5h-178v-568z" />
<glyph unicode="Q" horiz-adv-x="1368" d="M113 709q0 334 149.5 527.5t409.5 193.5q295 0 442 -230q129 -203 129 -520q0 -201 -49 -336t-158 -235q-43 -39 -90 -68q37 -12 189 -96q98 -57 188 -58q57 0 84 11l-55 -134q-37 -18 -121 -18q-92 0 -268 107q-66 41 -92.5 55t-80 32.5t-124.5 32.5q-227 0 -383 179 q-170 195 -170 557zM299 743q0 -332 92 -489q39 -68 123 -110t176 -42q166 0 260 121q104 135 105 432q0 301 -70 447q-92 193 -313 192q-96 0 -176 -45t-121 -119q-76 -137 -76 -387z" />
<glyph unicode="R" horiz-adv-x="1167" d="M188 0v1405h328q244 0 354 -90q139 -113 140 -295q0 -174 -102.5 -279.5t-270.5 -105.5h-21q63 -51 142 -158q59 -80 323 -477h-211q-90 203 -358 545q-41 53 -72.5 70.5t-83.5 19.5v-635h-168zM358 739h150q176 0 254 72q72 66 72 211q0 70 -39 129t-99 84 q-70 29 -176 29h-162v-525z" />
<glyph unicode="S" horiz-adv-x="1153" d="M84 100l74 131q168 -121 377 -120q141 0 223 61q100 76 100 201q0 186 -252 262l-141 43q-184 55 -250 125q-88 94 -88 229q0 180 125 292t330 112q225 0 424 -136l-74 -120q-102 66 -177 92t-165 26q-131 0 -206 -61t-75 -170q0 -84 54.5 -136t179.5 -93l162 -52 q170 -53 247 -141q92 -104 92 -248q0 -100 -51 -189t-143 -149q-133 -86 -315 -86q-246 0 -451 127z" />
<glyph unicode="T" horiz-adv-x="1011" d="M47 1264v141h930l-10 -141h-381v-1264h-162v1264h-377z" />
<glyph unicode="U" horiz-adv-x="1292" d="M180 397v1008h166v-946q0 -145 25 -203q59 -137 274 -137q182 0 248 88q53 72 53 219v979h166v-999q0 -129 -22.5 -199t-83.5 -123q-127 -109 -369 -109q-162 0 -260 49.5t-156 153.5q-41 76 -41 219z" />
<glyph unicode="V" horiz-adv-x="1165" d="M20 1405h183l297 -901q63 -190 82 -314q25 100 86 293l301 922h172l-482 -1405h-165z" />
<glyph unicode="W" horiz-adv-x="1689" d="M55 1405h181l178 -821q18 -82 36.5 -188.5t28.5 -174.5l10 -65q43 244 80 407l187 842h190l195 -873q47 -215 71 -376q37 221 82 434l174 815h168l-321 -1405h-219l-174 780q-23 98 -41.5 198.5t-24.5 151.5l-8 50q-29 -188 -72 -387l-172 -793h-217z" />
<glyph unicode="X" horiz-adv-x="1107" d="M14 0l416 754l-373 651h199l281 -520l268 520h196l-352 -639l443 -766h-203l-348 645l-330 -645h-197z" />
<glyph unicode="Y" horiz-adv-x="1071" d="M-6 1405h207l266 -537l72 -157q35 76 75 157l271 537h192l-456 -858v-547h-175v557z" />
<glyph unicode="Z" horiz-adv-x="1015" d="M70 0v129l600 1001l90 136q-59 -2 -146 -2h-524l47 141h801v-143l-584 -986l-86 -135q57 2 121 2h557l-43 -143h-833z" />
<glyph unicode="[" horiz-adv-x="530" d="M57 -319v1818h338v-123h-190v-1573h190v-122h-338z" />
<glyph unicode="\" horiz-adv-x="757" d="M6 1487l129 49l617 -1573l-129 -51z" />
<glyph unicode="]" horiz-adv-x="530" d="M135 -197h191v1573h-191v123h338v-1818h-338v122z" />
<glyph unicode="^" horiz-adv-x="1363" d="M164 563l457 887h122l457 -887h-151l-367 715l-367 -715h-151z" />
<glyph unicode="_" horiz-adv-x="1024" d="M0 -154h1024v-102h-1024v102z" />
<glyph unicode="`" horiz-adv-x="692" d="M80 1362l88 158l424 -267l-53 -96z" />
<glyph unicode="a" horiz-adv-x="1062" d="M33 0l399 1071h205l395 -1071h-184l-109 297h-430l-110 -297h-166zM354 432h346l-172 494z" />
<glyph unicode="b" horiz-adv-x="1097" d="M184 0v1069h297q182 0 252 -22q92 -29 147.5 -95.5t55.5 -150.5q0 -104 -86 -174q-55 -45 -125 -60q94 -12 156 -59q106 -78 106 -211q0 -88 -55 -162t-146 -106q-82 -29 -249 -29h-353zM344 135h201q119 0 172 23q41 16 67.5 59t26.5 92q0 113 -102 156q-57 23 -160 22 h-205v-352zM344 623h199q88 0 129 16t67 63q18 35 19 72q0 84 -72 125q-53 31 -162 31h-180v-307z" />
<glyph unicode="c" horiz-adv-x="999" d="M111 526q0 240 149.5 400.5t370.5 160.5q182 0 301 -86l-84 -110q-100 63 -215 63q-98 0 -176 -47t-119 -133q-45 -92 -45 -254q0 -109 21.5 -175t74.5 -124q98 -106 252 -106q119 0 229 67l82 -106q-121 -92 -331 -92q-223 0 -366.5 152t-143.5 390z" />
<glyph unicode="d" horiz-adv-x="1150" d="M180 0v1069h242q229 0 332 -47q268 -121 268 -485q0 -125 -36 -225.5t-92 -159t-104.5 -90t-91.5 -44.5q-61 -18 -194 -18h-324zM344 135h156q63 0 112 12q231 51 232 379q0 217 -96 316q-53 53 -114 72.5t-155 19.5h-135v-799z" />
<glyph unicode="e" horiz-adv-x="995" d="M184 0v1069h666l-23 -137h-479v-305h402v-138h-400v-346h518v-143h-684z" />
<glyph unicode="f" horiz-adv-x="890" d="M182 0v1069h639l-22 -135h-453v-303h373v-135h-373v-496h-164z" />
<glyph unicode="g" horiz-adv-x="1126" d="M117 539q0 313 200 452q129 90 310 90q188 0 342 -112l-78 -105q-72 45 -126 64.5t-134 19.5q-219 0 -287 -153q-49 -111 -49 -269q0 -274 156 -360q96 -53 211 -53q109 0 174 34v291h-234l-27 137h418v-505q-141 -86 -342 -86q-242 0 -389 147q-145 146 -145 408z" />
<glyph unicode="h" horiz-adv-x="1159" d="M176 0v1069h162v-434h477v434h164v-1069h-164v500h-477v-500h-162z" />
<glyph unicode="i" d="M188 0v1069h164v-1069h-164z" />
<glyph unicode="j" horiz-adv-x="536" d="M23 -129q98 41 143 115q31 49 31 192v891h161v-893q0 -129 -18 -186q-47 -147 -240 -213z" />
<glyph unicode="k" horiz-adv-x="1073" d="M172 0v1069h166v-496l440 496h209l-467 -498l473 -571h-213l-442 563v-563h-166z" />
<glyph unicode="l" horiz-adv-x="841" d="M184 0v1069h164v-932h467l-22 -137h-609z" />
<glyph unicode="m" horiz-adv-x="1464" d="M141 0l109 1069h223l199 -618l59 -228q33 139 60 221l196 625h236l102 -1069h-162l-63 686l-10 225q-29 -125 -60 -219l-231 -692h-144l-225 694l-57 219q-6 -127 -15 -219l-61 -694h-156z" />
<glyph unicode="n" horiz-adv-x="1185" d="M188 0v1069h189l348 -582q31 -51 63.5 -112.5t52 -98t21.5 -38.5q-16 152 -18 292l-6 539h159v-1069h-170l-344 567q-31 49 -67.5 119t-59.5 115l-22 45q10 -102 12 -297l10 -549h-168z" />
<glyph unicode="o" horiz-adv-x="1241" d="M127 539q0 256 130 402t355 146q246 0 385 -169q113 -137 113 -390q0 -256 -109 -385q-70 -86 -157.5 -123.5t-218.5 -37.5q-227 0 -355 141q-143 162 -143 416zM309 559q0 -215 74 -342q63 -109 246 -108q197 0 258 151q39 94 39 248q0 203 -54 307q-74 139 -266 139 q-74 0 -138.5 -29.5t-96.5 -78.5q-62 -90 -62 -287z" />
<glyph unicode="p" horiz-adv-x="1069" d="M188 0v1069h316q129 0 187.5 -10t107.5 -39q160 -92 159 -266q0 -152 -114 -252q-59 -51 -123 -70.5t-172 -19.5h-199v-412h-162zM350 547h189q131 0 186 55q51 51 51 135q0 100 -65 150q-59 45 -213 45h-148v-385z" />
<glyph unicode="q" horiz-adv-x="1251" d="M129 539q0 256 130 402t355 146q240 0 385 -172q113 -133 113 -387q0 -137 -24.5 -225t-83.5 -160q-55 -68 -121 -106q78 -29 178 -86t151 -72q32 -9 62 -9q26 0 51 7l-63 -110q-31 -4 -60 -4q-46 0 -88 10q-41 10 -208 105t-226 102q-18 2 -53 2q-227 0 -355 141 q-143 162 -143 416zM311 559q0 -227 71 -338.5t249 -111.5q197 0 258 151q39 94 39 248q0 203 -54 307q-74 139 -266 139q-74 0 -138 -29.5t-97 -78.5q-62 -90 -62 -287z" />
<glyph unicode="r" horiz-adv-x="1071" d="M188 0v1069h287q219 0 307 -55q59 -37 95 -101.5t36 -140.5q0 -141 -85 -220t-238 -81q35 -16 57 -47q143 -178 160 -201l170 -223h-203q-33 61 -96 160q-115 172 -205 254q-53 47 -121 53v-467h-164zM352 582h111q160 0 221 47q59 47 59 137q0 53 -30.5 93t-81.5 56 q-57 18 -150 19h-129v-352z" />
<glyph unicode="s" horiz-adv-x="1038" d="M82 76l68 129q166 -90 337 -90q104 0 172 41q84 51 84 133q0 63 -48 105t-158 71l-158 41q-117 31 -186.5 105.5t-69.5 170.5q0 137 110.5 225.5t284.5 88.5q227 0 375 -105l-74 -119q-145 88 -293 89q-102 0 -164.5 -42t-62.5 -112q0 -53 44 -89t144 -63l146 -39 q147 -41 215 -108q76 -76 76 -193q0 -84 -46.5 -157.5t-127.5 -118.5q-111 -61 -273 -62q-215 1 -395 99z" />
<glyph unicode="t" horiz-adv-x="937" d="M66 932v137h817l-19 -137h-321v-932h-160v932h-317z" />
<glyph unicode="u" horiz-adv-x="1171" d="M178 389v680h164v-641q0 -137 14 -178q20 -59 82 -93t150 -34q145 0 198 74q43 61 43 188v684h164v-680q0 -133 -19.5 -194.5t-76.5 -114.5q-106 -98 -313 -98q-279 0 -369 182q-37 75 -37 225z" />
<glyph unicode="v" horiz-adv-x="1073" d="M49 1069h178l236 -602q45 -115 78 -244q31 125 73 234l246 612h170l-416 -1073h-157z" />
<glyph unicode="w" horiz-adv-x="1511" d="M68 1069h176l137 -514q55 -209 72 -360q14 104 77 350l138 524h184l143 -547q53 -201 72 -321q20 137 72 340l137 528h168l-279 -1073h-204l-132 498q-57 219 -71 346q-20 -135 -72 -334l-127 -510h-205z" />
<glyph unicode="x" horiz-adv-x="1015" d="M37 0l360 571l-321 498h194l228 -350l217 350h192l-305 -487l379 -582h-195l-284 442l-269 -442h-196z" />
<glyph unicode="y" horiz-adv-x="1009" d="M29 1069h200l213 -358q35 -59 62 -127q18 47 63 125l217 360h189l-389 -641v-428h-170v430z" />
<glyph unicode="z" horiz-adv-x="989" d="M123 0v121l500 715q57 78 77 100q-49 -4 -125 -4h-436l43 137h697v-129l-492 -715q-47 -68 -72 -92q53 4 107 4h465l-43 -137h-721z" />
<glyph unicode="{" horiz-adv-x="681" d="M68 528v123q68 0 122 65.5t54 166.5v360q0 117 67.5 186.5t147.5 69.5h143v-123h-110q-100 0 -101 -162v-360q0 -121 -59.5 -184.5t-116.5 -77.5v-4q57 -8 116.5 -69.5t59.5 -194.5v-359q0 -162 101 -162h110v-122h-143q-84 0 -149.5 69.5t-65.5 186.5v358 q0 104 -53 168.5t-123 64.5z" />
<glyph unicode="|" horiz-adv-x="454" d="M160 -37v1585h135v-1585h-135z" />
<glyph unicode="}" horiz-adv-x="681" d="M80 -197h110q100 0 101 162v359q0 133 59.5 194.5t116.5 69.5v4q-57 14 -116.5 77.5t-59.5 184.5v360q0 162 -101 162h-110v123h143q80 0 147.5 -69.5t67.5 -186.5v-360q0 -100 54.5 -166t121.5 -66v-123q-70 0 -123 -64.5t-53 -168.5v-358q0 -117 -65.5 -186.5 t-149.5 -69.5h-143v122z" />
<glyph unicode="~" horiz-adv-x="1363" d="M211 578q41 57 66.5 87.5t78 61.5t111.5 31q80 0 226.5 -70t217.5 -70q104 0 174 144l68 -98q-43 -59 -68.5 -88t-78 -61t-111.5 -32q-80 0 -225.5 70t-218.5 70q-106 0 -172 -144z" />
<glyph horiz-adv-x="1169" d="M8 0l469 1405h219l465 -1405h-190l-133 432h-525l-135 -432h-170zM268 1599q0 43 31 74t74 31q45 0 75.5 -31t30.5 -74q0 -45 -29.5 -76.5t-74.5 -31.5t-76 31.5t-31 76.5zM358 569h437l-215 688zM690 1599q0 43 31 74t76 31q43 0 74.5 -31t31.5 -74q0 -45 -30.5 -76.5 t-73.5 -31.5q-45 0 -77 31.5t-32 76.5z" />
<glyph horiz-adv-x="1169" d="M8 0l469 1405h219l465 -1405h-190l-133 432h-525l-135 -432h-170zM358 569h437l-215 688zM369 1677q0 90 62.5 153.5t150.5 63.5t152.5 -64.5t64.5 -152.5q0 -90 -62.5 -153.5t-150.5 -63.5q-90 0 -153.5 64.5t-63.5 152.5zM463 1677q0 -49 37 -86t86 -37q47 0 84 37 t37 86t-38 86t-89 37q-47 0 -82 -37t-35 -86z" />
<glyph horiz-adv-x="1126" d="M102 698q0 313 168 519t422 206q205 0 355 -114l-91 -109q-121 88 -266 88q-242 0 -346 -241q-59 -137 -59 -373q0 -184 45 -297q53 -129 152.5 -195.5t224.5 -66.5q147 0 274 90l90 -113q-176 -115 -391 -115q-246 0 -410 187q-168 190 -168 534zM434 -354l43 96 q72 -33 125 -33q29 0 51.5 16.5t22.5 45t-23.5 44t-54.5 15.5q-33 0 -53 -4l-19 20l41 154h125l-22 -86q133 -18 133 -147q0 -66 -54.5 -118t-146.5 -52q-78 0 -168 49z" />
<glyph horiz-adv-x="1050" d="M188 0v1405h768l-22 -139h-576v-461h482v-146h-482v-514h619v-145h-789zM356 1581l424 266l88 -157l-458 -205z" />
<glyph horiz-adv-x="1310" d="M188 0v1405h195l467 -897q33 -61 65.5 -135t49.5 -117l16 -43q-16 225 -18 428l-7 764h166v-1405h-176l-450 860q-90 170 -160 338q16 -201 18 -383l8 -815h-174zM293 1630q55 70 107.5 99.5t138.5 29.5q63 0 131.5 -38t128.5 -38q45 0 74.5 19.5t68.5 60.5l57 -92 q-55 -68 -108 -98.5t-139 -30.5q-63 0 -132 38t-128 38q-45 0 -73 -18.5t-69 -61.5z" />
<glyph unicode="&#x85;" horiz-adv-x="1368" d="M117 709q0 334 149.5 527.5t409.5 193.5q289 0 442 -230q127 -188 127 -520q0 -203 -48 -338t-157 -233q-150 -135 -356 -136q-244 0 -399 179q-168 192 -168 557zM303 743q0 -336 90 -489q39 -66 125 -109t174 -43q166 0 262 121q102 129 103 432q0 305 -68 447 q-41 86 -119.5 139t-193.5 53q-98 0 -180 -44t-121 -120q-72 -135 -72 -387zM391 1599q0 43 31 74t74 31q45 0 75.5 -31t30.5 -74q0 -45 -29.5 -76.5t-74.5 -31.5t-76 31.5t-31 76.5zM813 1599q0 43 30.5 74t76.5 31q43 0 74.5 -31t31.5 -74q0 -45 -30.5 -76.5t-73.5 -31.5 q-45 0 -77 31.5t-32 76.5z" />
<glyph horiz-adv-x="1292" d="M180 397v1008h166v-946q0 -145 25 -203q59 -137 274 -137q182 0 248 88q53 72 53 219v979h166v-999q0 -129 -22.5 -199t-83.5 -123q-127 -109 -369 -109q-162 0 -260 49.5t-156 153.5q-41 76 -41 219zM317 1599q0 43 31 74t74 31q45 0 75.5 -31t30.5 -74 q0 -45 -29.5 -76.5t-74.5 -31.5t-76 31.5t-31 76.5zM739 1599q0 43 31 74t76 31q43 0 74.5 -31t31.5 -74q0 -45 -30.5 -76.5t-73.5 -31.5q-45 0 -77 31.5t-32 76.5z" />
<glyph horiz-adv-x="1062" d="M33 0l399 1071h205l395 -1071h-184l-109 297h-430l-110 -297h-166zM285 1253l424 267l88 -158l-459 -205zM354 432h346l-172 494z" />
<glyph horiz-adv-x="1062" d="M33 0l399 1071h205l395 -1071h-184l-109 297h-430l-110 -297h-166zM215 1362l88 158l424 -267l-53 -96zM354 432h346l-172 494z" />
<glyph horiz-adv-x="1062" d="M33 0l399 1071h205l395 -1071h-184l-109 297h-430l-110 -297h-166zM186 1239l349 277l350 -277l-74 -90l-285 174l-276 -174zM354 432h346l-172 494z" />
<glyph horiz-adv-x="1062" d="M33 0l399 1071h205l395 -1071h-184l-109 297h-430l-110 -297h-166zM223 1272q0 43 31 73.5t74 30.5q45 0 75.5 -30.5t30.5 -73.5q0 -45 -29.5 -77t-74.5 -32t-76 32t-31 77zM354 432h346l-172 494zM645 1272q0 43 31 73.5t76 30.5q43 0 74.5 -30.5t31.5 -73.5 q0 -45 -30.5 -77t-73.5 -32q-45 0 -77 32t-32 77z" />
<glyph horiz-adv-x="1062" d="M33 0l399 1071h205l395 -1071h-184l-109 297h-430l-110 -297h-166zM188 1303q55 70 107.5 99.5t138.5 29.5q63 0 132 -38t128 -38q45 0 75 19.5t69 60.5l57 -93q-55 -68 -108.5 -98.5t-139.5 -30.5q-63 0 -132 38t-128 38q-45 0 -72.5 -18.5t-68.5 -61.5zM354 432h346 l-172 494z" />
<glyph horiz-adv-x="1062" d="M33 0l399 1071h205l395 -1071h-184l-109 297h-430l-110 -297h-166zM313 1350q0 90 62.5 153.5t150.5 63.5t152.5 -64.5t64.5 -152.5q0 -90 -62.5 -153.5t-150.5 -63.5t-152.5 64.5t-64.5 152.5zM354 432h346l-172 494zM408 1349.5q0 -49.5 36.5 -86t85.5 -36.5 q47 0 84 36.5t37 86t-38 86.5t-89 37q-47 0 -81.5 -37t-34.5 -86.5z" />
<glyph horiz-adv-x="999" d="M111 526q0 240 149.5 400.5t370.5 160.5q182 0 301 -86l-84 -110q-100 63 -215 63q-98 0 -176 -47t-119 -133q-45 -92 -45 -254q0 -109 21.5 -175t74.5 -124q98 -106 252 -106q135 0 227 69l84 -108q-123 -92 -309 -92l-18 -70q133 -18 133 -147q0 -66 -54.5 -118 t-146.5 -52q-78 0 -168 49l43 96q72 -33 125 -33q29 0 51.5 16.5t22.5 45t-23.5 44t-54.5 15.5q-25 0 -53 -4l-19 20l39 148q-184 33 -296.5 178t-112.5 354z" />
<glyph horiz-adv-x="995" d="M184 0v1069h666l-23 -137h-479v-305h402v-138h-400v-346h518v-143h-684zM274 1253l424 267l88 -158l-458 -205z" />
<glyph horiz-adv-x="995" d="M184 0v1069h666l-23 -137h-479v-305h402v-138h-400v-346h518v-143h-684zM240 1362l88 158l424 -267l-54 -96z" />
<glyph horiz-adv-x="995" d="M184 0v1069h666l-23 -137h-479v-305h402v-138h-400v-346h518v-143h-684zM184 1239l348 277l351 -277l-74 -90l-285 174l-276 -174z" />
<glyph horiz-adv-x="995" d="M184 0v1069h666l-23 -137h-479v-305h402v-138h-400v-346h518v-143h-684zM205 1272q0 43 30.5 73.5t73.5 30.5q45 0 76 -30.5t31 -73.5q0 -45 -30 -77t-75 -32t-75.5 32t-30.5 77zM627 1272q0 43 30.5 73.5t75.5 30.5q43 0 75 -30.5t32 -73.5q0 -45 -31 -77t-74 -32 q-45 0 -76.5 32t-31.5 77z" />
<glyph d="M109 1253l423 267l89 -158l-459 -205zM188 0v1069h164v-1069h-164z" />
<glyph d="M-45 1362l88 158l424 -267l-53 -96zM188 0v1069h164v-1069h-164z" />
<glyph d="M-63 1239l348 277l350 -277l-74 -90l-285 174l-276 -174zM188 0v1069h164v-1069h-164z" />
<glyph d="M-41 1272q0 43 30.5 73.5t73.5 30.5q45 0 76 -30.5t31 -73.5q0 -45 -29.5 -77t-75 -32t-76 32t-30.5 77zM188 0v1069h164v-1069h-164zM381 1272q0 43 30.5 73.5t75.5 30.5q43 0 75 -30.5t32 -73.5q0 -45 -31 -77t-74 -32q-45 0 -76.5 32t-31.5 77z" />
<glyph horiz-adv-x="1185" d="M188 0v1069h189l348 -582q31 -51 63.5 -112.5t52 -98t21.5 -38.5q-16 152 -18 292l-6 539h159v-1069h-170l-344 567q-31 49 -67.5 119t-59.5 115l-22 45q10 -102 12 -297l10 -549h-168zM225 1303q55 70 107.5 99.5t138.5 29.5q63 0 132 -38t128 -38q45 0 75 19.5t68 60.5 l58 -93q-55 -68 -108.5 -98.5t-139.5 -30.5q-63 0 -132 38t-128 38q-45 0 -72.5 -18.5t-68.5 -61.5z" />
<glyph horiz-adv-x="1241" d="M127 539q0 256 130 402t355 146q246 0 385 -169q113 -137 113 -390q0 -256 -109 -385q-70 -86 -157.5 -123.5t-218.5 -37.5q-227 0 -355 141q-143 162 -143 416zM309 559q0 -215 74 -342q63 -109 246 -108q197 0 258 151q39 94 39 248q0 203 -54 307q-74 139 -266 139 q-74 0 -138.5 -29.5t-96.5 -78.5q-62 -90 -62 -287zM391 1253l424 267l88 -158l-459 -205z" />
<glyph horiz-adv-x="1241" d="M127 539q0 256 130 402t355 146q246 0 385 -169q113 -137 113 -390q0 -256 -109 -385q-70 -86 -157.5 -123.5t-218.5 -37.5q-227 0 -355 141q-143 162 -143 416zM252 1362l88 158l424 -267l-53 -96zM309 559q0 -215 74 -342q63 -109 246 -108q197 0 258 151q39 94 39 248 q0 203 -54 307q-74 139 -266 139q-74 0 -138.5 -29.5t-96.5 -78.5q-62 -90 -62 -287z" />
<glyph horiz-adv-x="1241" d="M127 539q0 256 130 402t355 146q246 0 385 -169q113 -137 113 -390q0 -256 -109 -385q-70 -86 -157.5 -123.5t-218.5 -37.5q-227 0 -355 141q-143 162 -143 416zM268 1239l348 277l351 -277l-74 -90l-285 174l-276 -174zM309 559q0 -215 74 -342q63 -109 246 -108 q197 0 258 151q39 94 39 248q0 203 -54 307q-74 139 -266 139q-74 0 -138.5 -29.5t-96.5 -78.5q-62 -90 -62 -287z" />
<glyph horiz-adv-x="1241" d="M127 539q0 256 130 402t355 146q246 0 385 -169q113 -137 113 -390q0 -256 -109 -385q-70 -86 -157.5 -123.5t-218.5 -37.5q-227 0 -355 141q-143 162 -143 416zM297 1272q0 43 30.5 73.5t73.5 30.5q45 0 76 -30.5t31 -73.5q0 -45 -29.5 -77t-75 -32t-76 32t-30.5 77z M309 559q0 -215 74 -342q63 -109 246 -108q197 0 258 151q39 94 39 248q0 203 -54 307q-74 139 -266 139q-74 0 -138.5 -29.5t-96.5 -78.5q-62 -90 -62 -287zM719 1272q0 43 30.5 73.5t75.5 30.5q43 0 75 -30.5t32 -73.5q0 -45 -31 -77t-74 -32q-45 0 -76.5 32t-31.5 77z " />
<glyph horiz-adv-x="1241" d="M127 539q0 256 130 402t355 146q246 0 385 -169q113 -137 113 -390q0 -256 -109 -385q-70 -86 -157.5 -123.5t-218.5 -37.5q-227 0 -355 141q-143 162 -143 416zM250 1303q55 70 107.5 99.5t138.5 29.5q63 0 131.5 -38t128.5 -38q45 0 74.5 19.5t68.5 60.5l57 -93 q-55 -68 -108 -98.5t-139 -30.5q-63 0 -132 38t-128 38q-45 0 -73 -18.5t-69 -61.5zM309 559q0 -215 74 -342q63 -109 246 -108q197 0 258 151q39 94 39 248q0 203 -54 307q-74 139 -266 139q-74 0 -138.5 -29.5t-96.5 -78.5q-62 -90 -62 -287z" />
<glyph horiz-adv-x="1171" d="M178 389v680h164v-641q0 -137 14 -178q20 -59 82 -93t150 -34q145 0 198 74q43 61 43 188v684h164v-680q0 -133 -19.5 -194.5t-76.5 -114.5q-106 -98 -313 -98q-279 0 -369 182q-37 75 -37 225zM393 1253l424 267l88 -158l-459 -205z" />
<glyph horiz-adv-x="1171" d="M178 389v680h164v-641q0 -137 14 -178q20 -59 82 -93t150 -34q145 0 198 74q43 61 43 188v684h164v-680q0 -133 -19.5 -194.5t-76.5 -114.5q-106 -98 -313 -98q-279 0 -369 182q-37 75 -37 225zM264 1362l88 158l424 -267l-53 -96z" />
<glyph horiz-adv-x="1171" d="M178 389v680h164v-641q0 -137 14 -178q20 -59 82 -93t150 -34q145 0 198 74q43 61 43 188v684h164v-680q0 -133 -19.5 -194.5t-76.5 -114.5q-106 -98 -313 -98q-279 0 -369 182q-37 75 -37 225zM225 1239l348 277l351 -277l-74 -90l-285 174l-276 -174z" />
<glyph horiz-adv-x="1171" d="M178 389v680h164v-641q0 -137 14 -178q20 -59 82 -93t150 -34q145 0 198 74q43 61 43 188v684h164v-680q0 -133 -19.5 -194.5t-76.5 -114.5q-106 -98 -313 -98q-279 0 -369 182q-37 75 -37 225zM254 1272q0 43 30.5 73.5t73.5 30.5q45 0 76 -30.5t31 -73.5 q0 -45 -29.5 -77t-75 -32t-76 32t-30.5 77zM676 1272q0 43 30.5 73.5t75.5 30.5q43 0 75 -30.5t32 -73.5q0 -45 -31 -77t-74 -32q-45 0 -76.5 32t-31.5 77z" />
<glyph unicode="&#xa0;" horiz-adv-x="915" d="M53 932v141h322v332h162v-332h327l-20 -141h-307v-932h-162v932h-322z" />
<glyph unicode="&#xa1;" horiz-adv-x="798" d="M70 1067q0 164 87 256t240 92q156 0 244 -94t88 -266q0 -150 -83 -245t-247 -95q-154 0 -241.5 94t-87.5 258zM209 1083q0 -135 48 -195.5t149 -60.5q186 0 186 220q0 127 -44 191.5t-153 64.5q-186 -1 -186 -220z" />
<glyph unicode="&#xa2;" horiz-adv-x="909" d="M115 494q0 281 153 434q98 98 219 112v160h113v-160q111 -14 223 -104l-88 -111q-80 66 -135 76v-790q94 20 162 104l88 -102q-113 -117 -250 -131v-156h-113v154q-182 16 -274 151q-98 144 -98 363zM291 459q0 -309 196 -350v792q-96 -27 -139 -108q-57 -107 -57 -334z " />
<glyph unicode="&#xa3;" horiz-adv-x="1138" d="M117 0v160h221v516h-197v135h197v164q0 254 120 377t318 123q203 0 330 -127l-113 -121q-104 100 -221 100q-143 0 -202.5 -92t-59.5 -264v-160h332v-135h-332v-516h504v-160h-897z" />
<glyph unicode="&#xa5;" horiz-adv-x="1024" d="M154 352v729l790 -364z" />
<glyph unicode="&#xa7;" horiz-adv-x="2076" d="M82 76l68 129q166 -90 337 -90q104 0 172 41q84 51 84 133q0 63 -48 105t-158 71l-158 41q-117 31 -186.5 105.5t-69.5 170.5q0 137 110.5 225.5t284.5 88.5q227 0 375 -105l-74 -119q-145 88 -293 89q-102 0 -164.5 -42t-62.5 -112q0 -53 44 -89t144 -63l146 -39 q147 -41 215 -108q76 -76 76 -193q0 -84 -46.5 -157.5t-127.5 -118.5q-111 -61 -273 -62q-215 1 -395 99zM1120 76l68 129q166 -90 338 -90q104 0 172 41q84 51 84 133q0 63 -48 105t-159 71l-158 41q-117 31 -186.5 105.5t-69.5 170.5q0 137 110.5 225.5t284.5 88.5 q227 0 375 -105l-73 -119q-145 88 -293 89q-102 0 -165 -42t-63 -112q0 -53 44 -89t145 -63l145 -39q147 -41 215 -108q76 -76 76 -193q0 -84 -46 -157.5t-128 -118.5q-111 -61 -272 -62q-216 1 -396 99z" />
<glyph unicode="&#xa9;" horiz-adv-x="1638" d="M57 725q0 322 223.5 542t538.5 220q313 0 537.5 -220t224.5 -542t-224 -542t-538 -220q-315 0 -538.5 220t-223.5 542zM193 725q0 -276 181 -463.5t445 -187.5q262 0 444.5 188.5t182.5 462.5t-182.5 462.5t-444.5 188.5q-264 0 -445 -187.5t-181 -463.5zM473 713 q0 141 55 252q47 92 127 143t179 51q127 0 206 -67l-57 -78q-66 49 -149 49q-129 0 -189 -121q-41 -82 -41 -227q0 -125 31 -199q59 -137 209 -137q90 0 155 51l58 -76q-100 -72 -228 -71q-164 0 -264 127q-92 121 -92 303z" />
<glyph unicode="&#xaa;" horiz-adv-x="2027" d="M131 1270v135h668v-135h-267v-709h-135v709h-266zM969 561v844h215l252 -641l252 641h208v-844h-135v709h-4l-278 -709h-93l-278 709h-4v-709h-135z" />
<glyph unicode="&#xab;" horiz-adv-x="692" d="M100 1253l424 267l88 -158l-458 -205z" />
<glyph unicode="&#xac;" horiz-adv-x="1024" d="M186 1272q0 43 31 73.5t74 30.5q45 0 75.5 -30.5t30.5 -73.5q0 -45 -29.5 -77t-74.5 -32t-76 32t-31 77zM608 1272q0 43 31 73.5t76 30.5q43 0 74.5 -30.5t31.5 -73.5q0 -45 -30.5 -77t-73.5 -32q-45 0 -77 32t-32 77z" />
<glyph unicode="&#xad;" horiz-adv-x="1363" d="M133 393v135h420l113 185h-533v135h615l223 366l94 -61l-186 -305h323v-135h-405l-113 -185h518v-135h-600l-223 -366l-94 61l186 305h-338z" />
<glyph unicode="&#xae;" horiz-adv-x="1832" d="M39 0l868 1405h832l-23 -141h-575v-459h481v-146h-481v-514h618v-145h-788v436h-484l-266 -436h-182zM571 573h400v670z" />
<glyph unicode="&#xaf;" horiz-adv-x="1353" d="M117 709q0 334 149.5 527.5t409.5 193.5q180 0 317 -97l131 219l109 -65l-146 -244q158 -193 158 -563q0 -203 -48 -338t-157 -233q-150 -135 -356 -136q-174 0 -305 93l-139 -232l-107 66l152 252q-168 192 -168 557zM303 743q0 -276 68 -446l544 907q-96 90 -239 90 q-98 0 -180 -44t-121 -120q-72 -135 -72 -387zM453 186q104 -84 239 -84q166 0 262 121q102 129 103 432q0 287 -62 435z" />
<glyph unicode="&#xb0;" horiz-adv-x="1808" d="M41 520q0 164 110.5 248t256.5 84q162 0 333 -123l166 -115l172 123q166 117 326 117q59 0 115.5 -15.5t112 -49t89 -99t33.5 -153.5q0 -164 -109.5 -247t-254.5 -83q-160 0 -320 112l-178 125l-172 -122q-168 -117 -328 -117q-59 0 -116.5 15.5t-112.5 48t-89 98 t-34 153.5zM205 522q0 -78 56 -131t147 -53q109 0 241 92l129 92l-164 115q-102 72 -206 72q-106 0 -154.5 -56.5t-48.5 -130.5zM1020 535l166 -113q104 -74 203 -74q106 0 154 56.5t48 130.5q0 78 -56 131t-146 53q-117 0 -242 -92z" />
<glyph unicode="&#xb1;" horiz-adv-x="931" d="M82 602v146h307v272h146v-272h307v-146h-307v-287h-146v287h-307zM86 74v145h752v-145h-752z" />
<glyph unicode="&#xb2;" horiz-adv-x="942" d="M86 74v145h752v-145h-752zM86 539v129l752 352v-154l-566 -254l566 -206v-152z" />
<glyph unicode="&#xb3;" horiz-adv-x="942" d="M86 74v145h752v-145h-752zM86 254v152l565 206l-565 254v154l752 -352v-129z" />
<glyph unicode="&#xb5;" horiz-adv-x="1097" d="M168 -426v1438l160 32v-735q0 -76 12 -109.5t47 -58.5q57 -39 127 -39q76 0 147.5 51.5t112.5 133.5v723l158 26v-723q0 -109 12 -159t57 -88l-102 -109q-92 76 -111 164q-117 -156 -323 -156q-92 0 -137 39v-2v-2v-2v-2v-2v-2v-2v-2v-2v-2v-2v-2v-3v-2v-2v-2v-2v-2v-2 v-2v-2v-2v-2v-2v-2v-2v-2v-2v-2v-2v-2v-2v-2v-3v-2v-4v-2v-2v-2v-2v-2v-2v-2v-4v-2v-2v-2v-2v-4v-2v-2v-3v-4v-2v-2v-2v-4v-2v-2v-4v-2v-2v-4v-2v-2v-4v-3v-4v-2v-2v-4v-2v-4v-2v-4v-2v-2v-4v-2v-4v-2v-5v-2v-4v-2v-4v-4v-2v-4v-2v-4v-2v-4v-2v-5v-4v-2v-4v-4v-2v-4v-2v-4 v-4v-2v-4v-4v-5v-2v-4v-4v-2v-4v-4v-4v-2v-4v-4v-4v-3v-4v-4v-4v-4v-2v-4v-4v-4v-4v-2v-4v-5v-4v-4v-4v-16z" />
<glyph unicode="&#xb6;" horiz-adv-x="1069" d="M66 1337l81 99q135 -14 304.5 -101.5t283.5 -220.5q246 -283 246 -622q0 -244 -123 -382.5t-319 -138.5q-186 0 -311.5 132.5t-125.5 326.5q0 186 115 302t295 116q70 0 129 -12.5t84 -24.5l27 -12q-63 178 -222 311q-102 88 -230 152.5t-234 74.5zM281 426 q0 -145 74.5 -233.5t195.5 -88.5t188.5 99.5t67.5 269.5q0 92 -21 184q-31 25 -107.5 46.5t-146.5 21.5q-119 0 -185 -78t-66 -221z" />
<glyph unicode="&#xb7;" horiz-adv-x="1015" d="M55 0v129l543 576l-524 559l47 141h735l-47 -141h-541l527 -557l-551 -564h618l-43 -143h-764z" />
<glyph unicode="&#xb9;" horiz-adv-x="1130" d="M82 893v127h962v-127h-133v-688q0 -59 12.5 -81t47.5 -22q20 0 35 11l32 -105q-53 -29 -116 -28q-74 0 -121 43q-49 43 -49 145v725h-375v-655q0 -172 -33 -238h-160q33 72 33 254v639h-135z" />
<glyph unicode="&#xba;" horiz-adv-x="458" d="M-162 -352l58 123q47 -39 114 -39q135 0 148 178l86 1270q6 98 37.5 153.5t89.5 96.5q76 53 176 53q111 0 176 -43l-57 -121q-47 39 -115 39q-135 0 -148 -180l-86 -1270q-6 -98 -37.5 -153.5t-89.5 -96.5q-76 -53 -176 -53q-110 0 -176 43z" />
<glyph unicode="&#xbb;" horiz-adv-x="802" d="M78 492v110h641v-110h-641zM90 979q0 131 105.5 203.5t298.5 72.5q29 0 53 -2v74q0 135 -123 135q-125 0 -246 -92l-61 94q158 104 325 105q141 0 197 -84q41 -59 37 -209l-8 -275q-2 -70 11 -105.5t52 -57.5l-65 -90q-84 27 -107 110q-92 -100 -221 -100 q-131 0 -189.5 64.5t-58.5 156.5zM223 991q0 -141 133 -141q57 0 107.5 32.5t79.5 88.5l4 198q-27 4 -60 5q-137 0 -200.5 -44.5t-63.5 -138.5z" />
<glyph unicode="&#xbf;" horiz-adv-x="1220" d="M125 -98l145 221q-143 162 -143 416q0 256 130 402t355 146q150 0 267 -67l143 213l104 -72l-153 -221l24 -25q113 -133 113 -387q0 -137 -24.5 -225t-84.5 -160q-70 -86 -157.5 -123.5t-218.5 -37.5q-158 0 -256 59l-142 -211zM309 559q0 -197 53 -303l437 645 q-74 53 -193 53q-74 0 -138.5 -29.5t-96.5 -78.5q-62 -90 -62 -287zM444 154q74 -45 185 -45q199 0 258 151q39 94 39 248q0 201 -47 289z" />
<glyph unicode="&#xc0;" horiz-adv-x="880" d="M84 276q0 47 14.5 92.5t34 77t48 62.5t48 46t44 33.5t26.5 20.5q141 113 90 336h137q63 -260 -96 -412q-20 -18 -61 -48.5t-62.5 -51t-41 -59.5t-19.5 -88q0 -76 52 -123t132 -47q133 0 279 94l67 -113q-158 -121 -377 -121q-141 0 -228 82t-87 219zM305 1286 q0 59 40 100t97.5 41t98.5 -42t41 -99t-40 -97t-97.5 -40t-98.5 40t-41 97z" />
<glyph unicode="&#xc1;" horiz-adv-x="544" d="M156 1298q0 53 36.5 91t88 38t88.5 -36.5t37 -90.5q0 -51 -37 -87.5t-88.5 -36.5t-88 35.5t-36.5 86.5zM182 -18l39 1026h123l39 -1000z" />
<glyph unicode="&#xc2;" horiz-adv-x="1196" d="M168 444v146h797v-432h-146v286h-651z" />
<glyph unicode="&#xc3;" horiz-adv-x="1089" d="M0 899v121h246l168 -516q78 -236 90 -314q35 145 86 293l328 940h161l-508 -1423h-145l-305 899h-121z" />
<glyph unicode="&#xc4;" horiz-adv-x="587" d="M-6 -291q35 20 60.5 43t43 38t30.5 43t19.5 40t12.5 50t7 48.5t4 61.5t3 65l49 793h-94v121h102l13 168q10 166 127 250q68 53 176 53q55 0 119.5 -20.5t93.5 -39.5l-68 -112q-74 47 -141 47q-135 0 -148 -180l-12 -166h275l-58 -121h-225l-51 -778q-4 -78 -6 -99.5 t-8.5 -79t-12.5 -74t-19.5 -57.5t-30.5 -58t-44 -48t-61.5 -53.5t-79.5 -49.5z" />
<glyph unicode="&#xc5;" horiz-adv-x="1781" d="M182 0v1069h639l-22 -135h-453v-303h373v-135h-373v-496h-164zM1073 0v1069h639l-22 -135h-453v-303h373v-135h-373v-496h-164z" />
<glyph unicode="&#xc6;" horiz-adv-x="1277" d="M92 0l453 1204h180l461 -1204h-1094zM297 133h680l-346 914z" />
<glyph unicode="&#xc7;" horiz-adv-x="1024" d="M119 492l293 438l112 -74l-239 -364l239 -365l-112 -74zM500 492l293 438l112 -74l-239 -364l239 -365l-112 -74z" />
<glyph unicode="&#xc8;" horiz-adv-x="1024" d="M119 127l239 365l-239 364l112 74l293 -438l-293 -439zM500 127l239 365l-239 364l112 74l293 -438l-293 -439z" />
<glyph unicode="&#xc9;" horiz-adv-x="1409" d="M94 115q0 57 39 96t96 39q59 0 99.5 -39t40.5 -96.5t-40 -99.5t-96 -42q-57 0 -98 41.5t-41 100.5zM565 115q0 57 39 96t96 39q59 0 99.5 -39t40.5 -96.5t-40 -99.5t-95 -42q-57 0 -98.5 41.5t-41.5 100.5zM1036 115q0 57 39 96t96 39q59 0 99.5 -39t40.5 -96.5 t-40 -99.5t-95 -42q-57 0 -98.5 41.5t-41.5 100.5z" />
<glyph unicode="&#xca;" horiz-adv-x="681" />
<glyph unicode="&#xcb;" horiz-adv-x="1169" d="M8 0l469 1405h219l465 -1405h-190l-133 432h-525l-135 -432h-170zM252 1690l88 157l424 -266l-53 -96zM358 569h437l-215 688z" />
<glyph unicode="&#xcc;" horiz-adv-x="1169" d="M8 0l469 1405h219l465 -1405h-190l-133 432h-525l-135 -432h-170zM213 1630q55 70 107.5 99.5t138.5 29.5q63 0 131.5 -38t128.5 -38q45 0 74.5 19.5t68.5 60.5l58 -92q-55 -68 -108.5 -98.5t-139.5 -30.5q-63 0 -132 38t-128 38q-45 0 -73 -18.5t-69 -61.5zM358 569h437 l-215 688z" />
<glyph unicode="&#xcd;" horiz-adv-x="1368" d="M117 709q0 334 149.5 527.5t409.5 193.5q289 0 442 -230q127 -188 127 -520q0 -203 -48 -338t-157 -233q-150 -135 -356 -136q-244 0 -399 179q-168 192 -168 557zM303 743q0 -336 90 -489q39 -66 125 -109t174 -43q166 0 262 121q102 129 103 432q0 305 -68 447 q-41 86 -119.5 139t-193.5 53q-98 0 -180 -44t-121 -120q-72 -135 -72 -387zM348 1630q55 70 107.5 99.5t138.5 29.5q63 0 132 -38t128 -38q45 0 74.5 19.5t68.5 60.5l58 -92q-55 -68 -108.5 -98.5t-139.5 -30.5q-63 0 -132 38t-128 38q-45 0 -73 -18.5t-68 -61.5z" />
<glyph unicode="&#xce;" horiz-adv-x="1746" d="M84 700q0 348 160 525q86 96 184 138t258 42h967l-23 -141h-575v-459h481v-146h-481v-514h618v-145h-901q-176 0 -265 18.5t-185 87.5q-238 170 -238 594zM266 721q0 -168 25.5 -273.5t95.5 -185.5q109 -127 264 -127q152 0 234 12v1098q-111 14 -180 15q-129 0 -212 -32 t-133 -114q-94 -153 -94 -393z" />
<glyph unicode="&#xcf;" horiz-adv-x="1615" d="M127 530q0 127 38 229.5t98.5 163t124 94.5t122.5 40q14 0 63.5 3t83.5 3h148v2h665l-22 -137h-479v-303h401v-138h-399v-344h518v-143h-684h-78q-41 0 -106.5 4t-85.5 4q-137 16 -246 107q-84 72 -123 170t-39 245zM305 541q0 -215 96 -314q53 -53 113.5 -72.5 t155.5 -19.5h135v793h-131q-84 0 -137 -13q-232 -50 -232 -374z" />
<glyph unicode="&#xd0;" horiz-adv-x="985" d="M-6 512v121h993v-121h-993z" />
<glyph unicode="&#xd1;" horiz-adv-x="1964" d="M254 512v121h1458v-121h-1458z" />
<glyph unicode="&#xd2;" horiz-adv-x="933" d="M106 1104q0 106 78 211q63 82 172 141l58 -90q-121 -59 -138 -182q10 2 23 2q47 0 80 -39t33 -92q0 -61 -42 -104.5t-102 -43.5q-72 0 -117 55.5t-45 141.5zM510 1104q0 106 78 211q63 82 172 141l57 -90q-121 -59 -137 -182q10 2 22 2q47 0 80 -39t33 -92 q0 -61 -42 -104.5t-101 -43.5q-72 0 -117 55.5t-45 141.5z" />
<glyph unicode="&#xd3;" horiz-adv-x="933" d="M100 971q121 59 138 182q-10 -2 -23 -2q-47 0 -80 39t-33 92q0 61 42 104.5t102 43.5q72 0 117 -55.5t45 -141.5q0 -106 -78 -211q-63 -82 -172 -141zM504 971q121 59 137 182q-10 -2 -23 -2q-47 0 -79.5 39t-32.5 92q0 61 42 104.5t101 43.5q72 0 117 -55.5t45 -141.5 q0 -106 -78 -211q-63 -82 -172 -141z" />
<glyph unicode="&#xd4;" horiz-adv-x="532" d="M106 1104q0 106 78 211q63 82 172 141l58 -90q-121 -59 -138 -182q10 2 23 2q47 0 80 -39t33 -92q0 -61 -42 -104.5t-102 -43.5q-72 0 -117 55.5t-45 141.5z" />
<glyph unicode="&#xd5;" horiz-adv-x="532" d="M100 971q121 59 138 182q-10 -2 -23 -2q-47 0 -80 39t-33 92q0 61 42 104.5t102 43.5q72 0 117 -55.5t45 -141.5q0 -106 -78 -211q-63 -82 -172 -141z" />
<glyph unicode="&#xd6;" horiz-adv-x="2322" d="M182 0v1069h639l-22 -135h-453v-303h373v-135h-373v-496h-164zM1073 0v1069h639l-22 -135h-453v-303h373v-135h-373v-496h-164zM1970 0v1069h164v-1069h-164z" />
<glyph unicode="&#xd7;" horiz-adv-x="2623" d="M182 0v1069h639l-22 -135h-453v-303h373v-135h-373v-496h-164zM1073 0v1069h639l-22 -135h-453v-303h373v-135h-373v-496h-164zM1966 0v1069h164v-932h467l-23 -137h-608z" />
<glyph unicode="&#xd8;" horiz-adv-x="1009" d="M27 1071h200l215 -360l62 -127q33 74 63 125l217 360h189l-389 -641v-428h-170v430zM186 1272q0 43 31 73.5t74 30.5q45 0 75.5 -30.5t30.5 -73.5q0 -45 -29.5 -77t-74.5 -32t-76 32t-31 77zM608 1272q0 43 31 73.5t76 30.5q43 0 74.5 -30.5t31.5 -73.5q0 -45 -30.5 -77 t-73.5 -32q-45 0 -77 32t-32 77z" />
<glyph unicode="&#xd9;" horiz-adv-x="1071" d="M12 1405h207l266 -537l72 -157q35 76 76 157l270 537h193l-457 -858v-547h-174v557zM250 1599q0 43 30.5 74t73.5 31q45 0 76 -31t31 -74q0 -45 -30 -76.5t-75 -31.5t-75.5 31.5t-30.5 76.5zM672 1599q0 43 30.5 74t75.5 31q43 0 75 -31t32 -74q0 -45 -31 -76.5 t-74 -31.5q-45 0 -76.5 31.5t-31.5 76.5z" />
<glyph unicode="&#xda;" horiz-adv-x="694" d="M-201 -315l1080 1878h135l-1080 -1878h-135z" />
<glyph unicode="&#xdb;" horiz-adv-x="915" d="M109 178l88 133q-76 92 -76 244q0 158 82 250l-90 129l139 82l78 -129q55 16 119 16q66 0 122 -20l76 133l131 -82l-86 -129q35 -25 61.5 -95.5t26.5 -166.5q0 -152 -71 -232l92 -133l-131 -84l-84 129q-55 -20 -135 -20q-70 0 -132 22l-83 -131zM260 571 q0 -133 47 -194.5t150 -61.5q186 0 186 220q0 127 -44 191.5t-153 64.5q-186 -1 -186 -220z" />
<glyph unicode="&#xdc;" horiz-adv-x="643" d="M119 492l293 438l112 -74l-239 -364l239 -365l-112 -74z" />
<glyph unicode="&#xdd;" horiz-adv-x="643" d="M119 127l239 365l-239 364l112 74l293 -438l-293 -439z" />
<glyph unicode="&#xde;" horiz-adv-x="1431" d="M182 0v1069h639l-22 -135h-453v-303h373v-135h-373v-496h-164zM1079 0v1069h164v-1069h-164z" />
<glyph unicode="&#xdf;" horiz-adv-x="1732" d="M182 0v1069h639l-22 -135h-453v-303h373v-135h-373v-496h-164zM1075 0v1069h164v-932h467l-23 -137h-608z" />
<glyph unicode="&#xe0;" horiz-adv-x="888" d="M47 332l21 141h307v459h-322v141h322v332h162v-332h327l-20 -141h-307v-459h321v-141h-321v-332h-162v332h-328z" />
<glyph unicode="&#xe1;" horiz-adv-x="546" d="M139 571q0 57 39 96.5t94.5 39.5t95.5 -39t40 -97q0 -55 -39 -95t-94.5 -40t-95.5 40t-40 95z" />
<glyph unicode="&#xe2;" horiz-adv-x="546" d="M117 -203q121 59 137 183q-10 -2 -23 -3q-47 0 -79.5 39t-32.5 93q0 61 42 104t101 43q72 0 117 -55.5t45 -141.5q0 -106 -78 -211q-63 -82 -172 -141z" />
<glyph unicode="&#xe3;" horiz-adv-x="944" d="M117 -203q121 59 137 183q-10 -2 -23 -3q-47 0 -79.5 39t-32.5 93q0 61 42 104t101 43q72 0 117 -55.5t45 -141.5q0 -106 -78 -211q-63 -82 -172 -141zM522 -203q121 59 137 183q-10 -2 -22 -3q-47 0 -80 39t-33 93q0 61 42 104t102 43q72 0 116.5 -55.5t44.5 -141.5 q0 -106 -77 -211q-63 -82 -172 -141z" />
<glyph unicode="&#xe4;" horiz-adv-x="2459" d="M70 1067q0 164 87 256t240 92q166 0 249 -97t83 -263q0 -158 -88 -249t-241.5 -91t-241.5 94t-88 258zM209 1083q0 -131 45 -193.5t152 -62.5q88 0 137 56.5t49 163.5q0 115 -40 185.5t-157 70.5q-186 -1 -186 -220zM453 0l686 1405h135l-686 -1405h-135zM983 332 q0 164 87 256t241 92q166 0 248.5 -97.5t82.5 -263.5q0 -158 -88 -248.5t-241.5 -90.5t-241.5 94t-88 258zM1122 348q0 -131 45 -193.5t152 -62.5q88 0 137 56.5t49 162.5q0 115 -40 185.5t-156 70.5q-187 0 -187 -219zM1741 332q0 164 87 256t240 92q166 0 249 -97.5 t83 -263.5q0 -158 -88 -248.5t-241.5 -90.5t-241.5 94t-88 258zM1880 348q0 -131 45 -193.5t152 -62.5q88 0 137 56.5t49 162.5q0 115 -40 185.5t-157 70.5q-186 0 -186 -219z" />
<glyph unicode="&#xe5;" horiz-adv-x="1169" d="M8 0l469 1405h219l465 -1405h-190l-133 432h-525l-135 -432h-170zM238 1567l348 276l350 -276l-74 -90l-284 174l-277 -174zM358 569h437l-215 688z" />
<glyph unicode="&#xe6;" horiz-adv-x="1050" d="M188 0v1405h768l-22 -139h-576v-461h482v-146h-482v-514h619v-145h-789zM238 1567l348 276l350 -276l-74 -90l-284 174l-277 -174z" />
<glyph unicode="&#xe7;" horiz-adv-x="1169" d="M8 0l469 1405h219l465 -1405h-190l-133 432h-525l-135 -432h-170zM358 569h437l-215 688zM408 1581l423 266l89 -157l-459 -205z" />
<glyph unicode="&#xe8;" horiz-adv-x="1050" d="M188 0v1405h768l-22 -139h-576v-461h482v-146h-482v-514h619v-145h-789zM268 1599q0 43 31 74t74 31q45 0 75.5 -31t30.5 -74q0 -45 -29.5 -76.5t-74.5 -31.5t-76 31.5t-31 76.5zM690 1599q0 43 31 74t76 31q43 0 74.5 -31t31.5 -74q0 -45 -30.5 -76.5t-73.5 -31.5 q-45 0 -77 31.5t-32 76.5z" />
<glyph unicode="&#xe9;" horiz-adv-x="1050" d="M188 0v1405h768l-22 -139h-576v-461h482v-146h-482v-514h619v-145h-789zM295 1690l88 157l424 -266l-53 -96z" />
<glyph unicode="&#xea;" d="M106 1581l424 266l88 -157l-458 -205zM188 0v1405h164v-1405h-164z" />
<glyph unicode="&#xeb;" d="M-66 1567l349 276l350 -276l-74 -90l-285 174l-276 -174zM188 0v1405h164v-1405h-164z" />
<glyph unicode="&#xec;" d="M-47 1599q0 43 30.5 74t73.5 31q45 0 76 -31t31 -74q0 -45 -30 -76.5t-75 -31.5t-75.5 31.5t-30.5 76.5zM188 0v1405h164v-1405h-164zM375 1599q0 43 30.5 74t75.5 31q43 0 75 -31t32 -74q0 -45 -31 -76.5t-74 -31.5q-45 0 -76.5 31.5t-31.5 76.5z" />
<glyph unicode="&#xed;" d="M-63 1690l88 157l424 -266l-54 -96zM188 0v1405h164v-1405h-164z" />
<glyph unicode="&#xee;" horiz-adv-x="1368" d="M117 709q0 334 149.5 527.5t409.5 193.5q289 0 442 -230q127 -188 127 -520q0 -203 -48 -338t-157 -233q-150 -135 -356 -136q-244 0 -399 179q-168 192 -168 557zM303 743q0 -336 90 -489q39 -66 125 -109t174 -43q166 0 262 121q102 129 103 432q0 305 -68 447 q-41 86 -119.5 139t-193.5 53q-98 0 -180 -44t-121 -120q-72 -135 -72 -387zM510 1581l424 266l88 -157l-459 -205z" />
<glyph unicode="&#xef;" horiz-adv-x="1368" d="M117 709q0 334 149.5 527.5t409.5 193.5q289 0 442 -230q127 -188 127 -520q0 -203 -48 -338t-157 -233q-150 -135 -356 -136q-244 0 -399 179q-168 192 -168 557zM303 743q0 -336 90 -489q39 -66 125 -109t174 -43q166 0 262 121q102 129 103 432q0 305 -68 447 q-41 86 -119.5 139t-193.5 53q-98 0 -180 -44t-121 -120q-72 -135 -72 -387zM362 1567l349 276l350 -276l-74 -90l-285 174l-276 -174z" />
<glyph unicode="&#xf0;" horiz-adv-x="2048" d="M102 1587l1035 72l409 -246l21 -205l225 31l102 -1577l-1310 -72l-11 195l-307 -31zM225 1485l154 -1598l1188 62l-113 1392l-297 -122l-61 327zM530 1010l150 12l215 -432l135 463l148 12l51 -590l-94 -8l-43 496h-5l-149 -512l-64 -7l-239 480h-2l43 -496l-94 -8z M1188 1526l20 -164l154 51z" />
<glyph unicode="&#xf1;" horiz-adv-x="1368" d="M117 709q0 334 149.5 527.5t409.5 193.5q289 0 442 -230q127 -188 127 -520q0 -203 -48 -338t-157 -233q-150 -135 -356 -136q-244 0 -399 179q-168 192 -168 557zM303 743q0 -336 90 -489q39 -66 125 -109t174 -43q166 0 262 121q102 129 103 432q0 305 -68 447 q-41 86 -119.5 139t-193.5 53q-98 0 -180 -44t-121 -120q-72 -135 -72 -387zM381 1690l88 157l424 -266l-53 -96z" />
<glyph unicode="&#xf2;" horiz-adv-x="1292" d="M180 397v1008h166v-946q0 -145 25 -203q59 -137 274 -137q182 0 248 88q53 72 53 219v979h166v-999q0 -129 -22.5 -199t-83.5 -123q-127 -109 -369 -109q-162 0 -260 49.5t-156 153.5q-41 76 -41 219zM389 1581l424 266l88 -157l-459 -205z" />
<glyph unicode="&#xf3;" horiz-adv-x="1292" d="M180 397v1008h166v-946q0 -145 25 -203q59 -137 274 -137q182 0 248 88q53 72 53 219v979h166v-999q0 -129 -22.5 -199t-83.5 -123q-127 -109 -369 -109q-162 0 -260 49.5t-156 153.5q-41 76 -41 219zM256 1567l348 276l350 -276l-73 -90l-285 174l-277 -174z" />
<glyph unicode="&#xf4;" horiz-adv-x="1292" d="M180 397v1008h166v-946q0 -145 25 -203q59 -137 274 -137q182 0 248 88q53 72 53 219v979h166v-999q0 -129 -22.5 -199t-83.5 -123q-127 -109 -369 -109q-162 0 -260 49.5t-156 153.5q-41 76 -41 219zM313 1690l88 157l424 -266l-53 -96z" />
<glyph unicode="&#xf5;" horiz-adv-x="509" d="M166 0v1016l172 26v-1042h-172z" />
<glyph unicode="&#xf6;" horiz-adv-x="823" d="M59 1239l349 277l350 -277l-74 -90l-285 174l-276 -174z" />
<glyph unicode="&#xf7;" horiz-adv-x="778" d="M29 1303q55 70 107 99.5t138 29.5q63 0 132 -38t129 -38q45 0 74.5 19.5t68.5 60.5l57 -93q-55 -68 -108.5 -98.5t-139.5 -30.5q-63 0 -131.5 38t-128.5 38q-45 0 -72.5 -18.5t-68.5 -61.5z" />
<glyph unicode="&#xf8;" horiz-adv-x="823" d="M123 1399v110h561v-110h-561z" />
<glyph unicode="&#xf9;" horiz-adv-x="823" d="M49 1419l74 90l285 -174l276 174l64 -90l-349 -276z" />
<glyph unicode="&#xfa;" horiz-adv-x="509" d="M129 1333q0 53 37 90t88 37q53 0 89 -35.5t36 -89t-36 -89.5t-89 -36q-51 0 -88 36t-37 87z" />
<glyph unicode="&#xfb;" horiz-adv-x="645" d="M104 1350q0 90 62.5 153.5t151 63.5t153 -64.5t64.5 -152.5q0 -90 -62.5 -153.5t-151 -63.5t-153 64.5t-64.5 152.5zM199 1349.5q0 -49.5 36.5 -86t86.5 -36.5q47 0 83.5 36.5t36.5 86t-37.5 86.5t-89.5 37q-47 0 -81.5 -37t-34.5 -86.5z" />
<glyph unicode="&#xfc;" horiz-adv-x="878" d="M287 -354l43 96q72 -33 125 -33q29 0 51 16.5t22 45t-23.5 44t-53.5 15.5q-33 0 -54 -4l-18 20l41 154h125l-23 -86q133 -18 133 -147q0 -66 -54 -118t-146 -52q-78 0 -168 49z" />
<glyph unicode="&#xfd;" horiz-adv-x="876" d="M90 1116l176 430l166 -67l-239 -406zM418 1149l254 387l151 -96l-315 -355z" />
<glyph unicode="&#xfe;" horiz-adv-x="878" d="M258 -225q0 84 43 153.5t90 106.5l105 -60q-12 -10 -31 -26.5t-49.5 -66.5t-30.5 -95q0 -31 19.5 -52.5t54.5 -21.5q63 0 125 29l43 -96q-90 -49 -168 -49q-94 0 -147.5 51t-53.5 127z" />
<glyph unicode="&#xff;" horiz-adv-x="823" d="M49 1419l74 90q141 -133 285 -133q113 0 276 133l64 -90q-43 -63 -145.5 -149t-203.5 -86q-72 0 -155.5 55t-125.5 100t-69 80z" />
<glyph unicode="&#x152;" horiz-adv-x="888" d="M111 1159q0 186 87 293t238 107q164 0 249 -111t85 -307q0 -186 -88 -287.5t-242 -101.5q-152 0 -240.5 109.5t-88.5 297.5zM121 492v110h641v-110h-641zM252 1176q0 -162 47 -236t145 -74q178 0 179 269q0 174 -49.5 242.5t-139.5 68.5q-182 0 -182 -270z" />
<glyph unicode="&#x153;" horiz-adv-x="1341" d="M78 0v145h264q-127 72 -191.5 223.5t-64.5 340.5q0 322 180 522q152 168 400 168q295 0 448 -230q70 -104 103.5 -215.5t33.5 -273.5q0 -190 -67.5 -330.5t-192.5 -204.5h271v-145h-451v145q119 49 185.5 164t66.5 346q0 254 -78 416q-39 84 -122 138.5t-197 54.5 q-98 0 -183.5 -44t-124.5 -120q-86 -162 -86 -357q0 -489 256 -598v-145h-450z" />
<glyph unicode="&#x178;" horiz-adv-x="1523" d="M-45 0l682 1065h741l-22 -137h-479v-303h401v-138h-399v-344h518v-143h-684v297h-391l-191 -297h-176zM403 432h310v502z" />
<glyph unicode="&#x2c6;" horiz-adv-x="1363" d="M164 563l457 887h122l457 -887h-151l-367 715l-367 -715h-151z" />
<glyph unicode="&#x2dc;" horiz-adv-x="460" d="M-471 222q41 57 66.5 87.5t78 61.5t111.5 31q80 0 226.5 -70t217.5 -70q104 0 174 144l68 -98q-43 -59 -68.5 -88t-78 -61t-111.5 -32q-80 0 -225.5 70t-218.5 70q-106 0 -172 -144z" />
<glyph unicode="&#x2000;" horiz-adv-x="946" />
<glyph unicode="&#x2001;" horiz-adv-x="1894" />
<glyph unicode="&#x2002;" horiz-adv-x="946" />
<glyph unicode="&#x2003;" horiz-adv-x="1894" />
<glyph unicode="&#x2004;" horiz-adv-x="630" />
<glyph unicode="&#x2005;" horiz-adv-x="473" />
<glyph unicode="&#x2006;" horiz-adv-x="315" />
<glyph unicode="&#x2007;" horiz-adv-x="315" />
<glyph unicode="&#x2008;" horiz-adv-x="235" />
<glyph unicode="&#x2009;" horiz-adv-x="378" />
<glyph unicode="&#x200a;" horiz-adv-x="104" />
<glyph unicode="&#x2010;" horiz-adv-x="618" d="M117 469v156h391v-156h-391z" />
<glyph unicode="&#x2011;" horiz-adv-x="618" d="M117 469v156h391v-156h-391z" />
<glyph unicode="&#x2012;" horiz-adv-x="618" d="M117 469v156h391v-156h-391z" />
<glyph unicode="&#x2013;" horiz-adv-x="1024" d="M117 469v156h796v-156h-796z" />
<glyph unicode="&#x2014;" horiz-adv-x="2048" d="M117 469v156h1820v-156h-1820z" />
<glyph unicode="&#x2018;" horiz-adv-x="692" d="M80 1362l88 158l424 -267l-53 -96z" />
<glyph unicode="&#x2019;" horiz-adv-x="569" d="M211 958v492h147v-492h-147z" />
<glyph unicode="&#x201c;" horiz-adv-x="1062" d="M307 958v492h148v-492h-148zM608 958v492h148v-492h-148z" />
<glyph unicode="&#x201d;" horiz-adv-x="1062" d="M307 958v492h148v-492h-148zM608 958v492h148v-492h-148z" />
<glyph unicode="&#x2026;" horiz-adv-x="1634" d="M1225 115q0 57 39 96t96 39q59 0 99.5 -39t40.5 -96.5t-40 -99.5t-96 -42q-57 0 -98 41.5t-41 100.5zM680 115q0 57 39 96t96 39q59 0 99.5 -39t40.5 -96.5t-40 -99.5t-96 -42q-57 0 -98 41.5t-41 100.5zM135 115q0 57 39 96t96 39q59 0 99.5 -39t40.5 -96.5t-40 -99.5 t-96 -42q-57 0 -98 41.5t-41 100.5z" />
<glyph unicode="&#x202f;" horiz-adv-x="378" />
<glyph unicode="&#x2039;" horiz-adv-x="643" d="M27 614l391 527l135 -88l-328 -439l328 -438l-135 -88z" />
<glyph unicode="&#x203a;" horiz-adv-x="643" d="M78 176l328 438l-328 439l135 88l393 -527l-393 -526z" />
<glyph unicode="&#x205f;" horiz-adv-x="473" />
<glyph unicode="&#x20ac;" horiz-adv-x="1138" d="M115 -43l157 74q53 -178 258 -178q94 0 158 47t64 141q0 35 -9.5 59.5t-40 49t-53 39t-84.5 47.5q-12 6 -18 10l-250 131q-150 78 -150 250q0 186 207 286q-158 90 -157 242q0 156 116.5 244t276.5 88q117 0 215 -48t143 -145l-153 -84q-23 63 -81.5 96t-129.5 33 q-88 0 -151.5 -45t-63.5 -131q0 -100 90 -147l200 -101q74 -37 111 -58t93.5 -64t82 -96.5t25.5 -118.5q0 -174 -176 -273q141 -92 141 -252q0 -166 -124 -257t-294 -91q-139 0 -246.5 63.5t-156.5 188.5zM307 653q0 -37 14.5 -67.5t45 -54t53 -36t63.5 -32.5l183 -88 q53 23 93 73t40 105q0 41 -17.5 75t-51.5 61.5t-60.5 44t-69.5 36.5l-119 59q-41 -16 -62.5 -27t-52 -32.5t-45 -50.5t-14.5 -66z" />
<glyph unicode="&#x2122;" horiz-adv-x="2648" d="M1147 0l123 1405h246l256 -918q16 -61 30.5 -122.5t20.5 -92.5l4 -30q18 113 51 229l264 934h248l121 -1405h-168l-82 1030l-10 240q-29 -129 -55 -221l-301 -1049h-144l-278 997l-70 275q-10 -186 -16 -273l-78 -999h-162zM47 1264v141h930l-10 -141h-381v-1264h-162 v1264h-377z" />
<glyph unicode="&#xe000;" horiz-adv-x="1070" d="M0 1070h1070v-1070h-1070v1070z" />
<glyph unicode="&#xfb01;" horiz-adv-x="1431" d="M1079 0v1069h164v-1069h-164zM182 0v1069h639l-22 -135h-453v-303h373v-135h-373v-496h-164z" />
<glyph unicode="&#xfb02;" horiz-adv-x="1732" d="M1075 0v1069h164v-932h467l-22 -137h-609zM182 0v1069h639l-22 -135h-453v-303h373v-135h-373v-496h-164z" />
<glyph unicode="&#xfb03;" horiz-adv-x="2322" d="M1970 0v1069h164v-1069h-164zM1073 0v1069h639l-22 -135h-453v-303h373v-135h-373v-496h-164zM182 0v1069h639l-22 -135h-453v-303h373v-135h-373v-496h-164z" />
<glyph unicode="&#xfb04;" horiz-adv-x="2623" d="M1966 0v1069h164v-932h467l-22 -137h-609zM1073 0v1069h639l-22 -135h-453v-303h373v-135h-373v-496h-164zM182 0v1069h639l-22 -135h-453v-303h373v-135h-373v-496h-164z" />
</font>
</defs>
</svg>
